<svg width="229" height="74" viewBox="0 0 229 74" fill="none" xmlns="http://www.w3.org/2000/svg">
<path d="M9.9003 62V57.824L10.2603 58.184H6.1383C5.1303 58.184 4.2663 58.01 3.5463 57.662C2.8383 57.314 2.2923 56.822 1.9083 56.186C1.5363 55.538 1.3503 54.764 1.3503 53.864C1.3503 52.904 1.5543 52.094 1.9623 51.434C2.3703 50.762 2.9463 50.258 3.6903 49.922C4.4463 49.574 5.3223 49.4 6.3183 49.4H11.2143V62H9.9003ZM1.3503 62L4.4463 57.572H5.8143L2.7723 62H1.3503ZM9.9003 57.446V50.174L10.2603 50.552H6.3723C5.1963 50.552 4.2843 50.834 3.6363 51.398C3.0003 51.95 2.6823 52.76 2.6823 53.828C2.6823 54.86 2.9823 55.658 3.5823 56.222C4.1823 56.774 5.0703 57.05 6.2463 57.05H10.2603L9.9003 57.446ZM25.6219 62L20.7799 55.718L21.8599 55.07L27.1519 62H25.6219ZM16.9999 62V49.4H18.2959V62H16.9999ZM17.8999 56.222V55.052H21.8419V56.222H17.8999ZM21.9679 55.844L20.7439 55.628L25.4419 49.4H26.8819L21.9679 55.844ZM30.7291 62V49.4H32.0431V62H30.7291ZM43.3218 62.108C42.3738 62.108 41.4978 61.952 40.6938 61.64C39.8898 61.316 39.1938 60.866 38.6058 60.29C38.0178 59.714 37.5558 59.036 37.2198 58.256C36.8958 57.476 36.7338 56.624 36.7338 55.7C36.7338 54.776 36.8958 53.924 37.2198 53.144C37.5558 52.364 38.0178 51.686 38.6058 51.11C39.2058 50.534 39.9078 50.09 40.7118 49.778C41.5158 49.454 42.3918 49.292 43.3398 49.292C44.2518 49.292 45.1098 49.448 45.9138 49.76C46.7178 50.06 47.3958 50.516 47.9478 51.128L47.1018 51.974C46.5858 51.446 46.0158 51.068 45.3918 50.84C44.7678 50.6 44.0958 50.48 43.3758 50.48C42.6198 50.48 41.9178 50.612 41.2698 50.876C40.6218 51.128 40.0578 51.494 39.5778 51.974C39.0978 52.442 38.7198 52.994 38.4438 53.63C38.1798 54.254 38.0478 54.944 38.0478 55.7C38.0478 56.456 38.1798 57.152 38.4438 57.788C38.7198 58.412 39.0978 58.964 39.5778 59.444C40.0578 59.912 40.6218 60.278 41.2698 60.542C41.9178 60.794 42.6198 60.92 43.3758 60.92C44.0958 60.92 44.7678 60.8 45.3918 60.56C46.0158 60.32 46.5858 59.936 47.1018 59.408L47.9478 60.254C47.3958 60.866 46.7178 61.328 45.9138 61.64C45.1098 61.952 44.2458 62.108 43.3218 62.108ZM54.5724 62V50.192L54.9324 50.552H50.1444V49.4H60.3144V50.552H55.5444L55.8864 50.192V62H54.5724ZM69.4564 53.9C70.9444 53.9 72.0784 54.236 72.8584 54.908C73.6504 55.568 74.0464 56.552 74.0464 57.86C74.0464 59.216 73.6264 60.248 72.7864 60.956C71.9464 61.652 70.7464 62 69.1864 62H64.1824V49.4H65.4964V53.9H69.4564ZM69.1504 60.938C70.3144 60.938 71.1964 60.68 71.7964 60.164C72.4084 59.648 72.7144 58.892 72.7144 57.896C72.7144 56.9 72.4144 56.168 71.8144 55.7C71.2144 55.22 70.3264 54.98 69.1504 54.98H65.4964V60.938H69.1504Z" fill="#343B4A"/>
<circle cx="85" cy="56" r="2" fill="#343B4A"/>
<path d="M106.812 49.4H108.126V62H106.812V49.4ZM98.9284 62H97.5964V49.4H98.9284V62ZM106.938 56.186H98.7844V55.016H106.938V56.186ZM112.056 62L117.816 49.4H119.13L124.89 62H123.486L118.194 50.174H118.734L113.442 62H112.056ZM114.324 58.634L114.72 57.554H122.046L122.442 58.634H114.324ZM137.204 61.37V50.552H131.174L131.066 53.612C131.03 54.56 130.97 55.472 130.886 56.348C130.814 57.212 130.694 57.992 130.526 58.688C130.37 59.372 130.154 59.93 129.878 60.362C129.614 60.794 129.266 61.046 128.834 61.118L127.376 60.848C127.856 60.872 128.252 60.698 128.564 60.326C128.888 59.954 129.134 59.432 129.302 58.76C129.482 58.088 129.614 57.302 129.698 56.402C129.782 55.502 129.842 54.53 129.878 53.486L130.022 49.4H138.518V61.37H137.204ZM126.908 64.826L126.926 60.848H140.408V64.826H139.166V62H128.168L128.15 64.826H126.908ZM144.655 62V49.4H145.969V62H144.655ZM151.74 62V49.4H153.054V59.84L161.118 49.4H162.324V62H161.01V51.578L152.946 62H151.74ZM156.996 48.482C156.096 48.482 155.382 48.278 154.854 47.87C154.338 47.462 154.074 46.892 154.062 46.16H155.052C155.064 46.64 155.244 47.018 155.592 47.294C155.952 47.57 156.42 47.708 156.996 47.708C157.572 47.708 158.034 47.57 158.382 47.294C158.742 47.018 158.928 46.64 158.94 46.16H159.93C159.918 46.892 159.648 47.462 159.12 47.87C158.592 48.278 157.884 48.482 156.996 48.482ZM177.322 49.4H178.636V62H177.322V49.4ZM169.438 62H168.106V49.4H169.438V62ZM177.448 56.186H169.294V55.016H177.448V56.186ZM184.419 62V49.4H185.733V62H184.419ZM197.012 62.108C196.064 62.108 195.188 61.952 194.384 61.64C193.58 61.316 192.884 60.866 192.296 60.29C191.708 59.714 191.246 59.036 190.91 58.256C190.586 57.476 190.424 56.624 190.424 55.7C190.424 54.776 190.586 53.924 190.91 53.144C191.246 52.364 191.708 51.686 192.296 51.11C192.896 50.534 193.598 50.09 194.402 49.778C195.206 49.454 196.082 49.292 197.03 49.292C197.942 49.292 198.8 49.448 199.604 49.76C200.408 50.06 201.086 50.516 201.638 51.128L200.792 51.974C200.276 51.446 199.706 51.068 199.082 50.84C198.458 50.6 197.786 50.48 197.066 50.48C196.31 50.48 195.608 50.612 194.96 50.876C194.312 51.128 193.748 51.494 193.268 51.974C192.788 52.442 192.41 52.994 192.134 53.63C191.87 54.254 191.738 54.944 191.738 55.7C191.738 56.456 191.87 57.152 192.134 57.788C192.41 58.412 192.788 58.964 193.268 59.444C193.748 59.912 194.312 60.278 194.96 60.542C195.608 60.794 196.31 60.92 197.066 60.92C197.786 60.92 198.458 60.8 199.082 60.56C199.706 60.32 200.276 59.936 200.792 59.408L201.638 60.254C201.086 60.866 200.408 61.328 199.604 61.64C198.8 61.952 197.936 62.108 197.012 62.108ZM208.262 62V50.192L208.622 50.552H203.834V49.4H214.004V50.552H209.234L209.576 50.192V62H208.262ZM223.146 53.9C224.634 53.9 225.768 54.236 226.548 54.908C227.34 55.568 227.736 56.552 227.736 57.86C227.736 59.216 227.316 60.248 226.476 60.956C225.636 61.652 224.436 62 222.876 62H217.872V49.4H219.186V53.9H223.146ZM222.84 60.938C224.004 60.938 224.886 60.68 225.486 60.164C226.098 59.648 226.404 58.892 226.404 57.896C226.404 56.9 226.104 56.168 225.504 55.7C224.904 55.22 224.016 54.98 222.84 54.98H219.186V60.938H222.84Z" fill="#343B4A"/>
</svg>
