<svg width="36" height="32" viewBox="0 0 36 32" fill="none" xmlns="http://www.w3.org/2000/svg">
<path d="M15.4814 29.9998V20.9765C15.4814 20.3104 15.7885 19.6819 16.3132 19.2739L21.9439 14.8958C22.7181 14.2938 23.8001 14.2939 24.5743 14.8958L30.205 19.2739C30.7297 19.6819 31.0368 20.3104 31.0368 20.9765V29.9998H15.4814Z" stroke="#143275" stroke-width="2.5" stroke-linecap="round" stroke-linejoin="round"/>
<path d="M2 29.9999H34.1479" stroke="#143275" stroke-width="2.5" stroke-linecap="round" stroke-linejoin="round"/>
<path d="M5.1111 29.9998V4C5.1111 2.89543 6.00653 2 7.1111 2H21.7591C22.5875 2 23.2591 2.67157 23.2591 3.5V14.4444" stroke="#143275" stroke-width="2.5" stroke-linecap="round" stroke-linejoin="round"/>
<path d="M23.2591 22.7407V29.9999" stroke="#143275" stroke-width="2.5" stroke-linecap="round" stroke-linejoin="round"/>
<path d="M11.3333 8.22217H11.3557" stroke="#143275" stroke-width="2.5" stroke-linecap="round" stroke-linejoin="round"/>
<path d="M11.3333 14.4443H11.3557" stroke="#143275" stroke-width="2.5" stroke-linecap="round" stroke-linejoin="round"/>
<path d="M17.0369 8.22217H17.0593" stroke="#143275" stroke-width="2.5" stroke-linecap="round" stroke-linejoin="round"/>
</svg>
