<svg width="254" height="32" viewBox="0 0 254 32" fill="none" xmlns="http://www.w3.org/2000/svg">
<g clip-path="url(#clip0_395_23)">
<path d="M6.06218 8.36489H0.845066V4.90222H5.34958V4.35903H0.845066V1.02905H5.881V0.473884H0.228973V8.91956H6.06218V8.36489Z" fill="white"/>
<path d="M9.29257 8.42482C9.95684 8.79542 10.7036 8.97998 11.5328 8.97998C12.1368 8.97998 12.6983 8.87972 13.2176 8.6787C13.737 8.47769 14.1778 8.1839 14.5401 7.79783L14.1536 7.39979C13.4692 8.07516 12.6035 8.41335 11.557 8.41335C10.8485 8.41335 10.2045 8.25223 9.62473 7.9305C9.04509 7.60878 8.59011 7.16435 8.26009 6.59721C7.92993 6.03008 7.76497 5.39661 7.76497 4.69679C7.76497 3.99698 7.92993 3.3635 8.26009 2.79637C8.59011 2.22923 9.04509 1.7853 9.62473 1.46308C10.2045 1.14185 10.8485 0.980736 11.557 0.980736C12.6117 0.980736 13.4773 1.31443 14.1536 1.98232L14.5401 1.58378C14.1778 1.19771 13.7388 0.906418 13.2237 0.709392C12.7082 0.512366 12.1446 0.413601 11.5328 0.413601C10.7036 0.413601 9.95684 0.598656 9.29257 0.968765C8.6285 1.33838 8.10507 1.84964 7.72264 2.50107C7.3402 3.15251 7.14908 3.88425 7.14908 4.69679C7.14908 5.50933 7.3402 6.24108 7.72264 6.89301C8.10507 7.54444 8.6285 8.05521 9.29257 8.42482Z" fill="white"/>
<path d="M16.4239 2.79637C16.7538 2.22923 17.2069 1.7853 17.7826 1.46308C18.3581 1.14185 19.0002 0.980736 19.7089 0.980736C20.4172 0.980736 21.0573 1.14185 21.6291 1.46308C22.2005 1.7853 22.6514 2.22923 22.9816 2.79637C23.3116 3.3635 23.4768 3.99698 23.4768 4.69679C23.4768 5.39661 23.3116 6.03008 22.9816 6.59721C22.6514 7.16435 22.2005 7.60878 21.6291 7.9305C21.0573 8.25223 20.4172 8.41335 19.7089 8.41335C19.0002 8.41335 18.3581 8.25223 17.7826 7.9305C17.2069 7.60878 16.7538 7.16435 16.4239 6.59721C16.0937 6.03008 15.9287 5.39661 15.9287 4.69679C15.9287 3.99698 16.0937 3.3635 16.4239 2.79637ZM17.4626 8.41883C18.1308 8.79293 18.8795 8.97998 19.7089 8.97998C20.5379 8.97998 21.2868 8.79542 21.9552 8.42482C22.6233 8.05521 23.1487 7.54444 23.5312 6.89301C23.9134 6.24108 24.1048 5.50933 24.1048 4.69679C24.1048 3.88425 23.9134 3.15251 23.5312 2.50107C23.1487 1.84964 22.6233 1.33838 21.9552 0.968765C21.2868 0.598656 20.5379 0.413601 19.7089 0.413601C18.8795 0.413601 18.1308 0.600651 17.4626 0.974751C16.7942 1.34885 16.2688 1.86111 15.8864 2.51305C15.5039 3.16448 15.3128 3.89273 15.3128 4.69679C15.3128 5.50135 15.5039 6.2291 15.8864 6.88054C16.2688 7.53247 16.7942 8.04523 17.4626 8.41883Z" fill="white"/>
<path d="M26.5564 4.90222H29.7083C30.5296 4.90222 31.1516 5.04288 31.5745 5.32421C31.9969 5.60553 32.2086 6.04397 32.2086 6.63954C32.2086 7.23461 31.9969 7.67505 31.5745 7.96087C31.1516 8.24618 30.5296 8.38883 29.7083 8.38883H26.5564V4.90222ZM26.5564 1.00461H29.4427C30.1836 1.00461 30.7532 1.14777 31.1516 1.43308C31.5501 1.71889 31.7493 2.13489 31.7493 2.68207C31.7493 3.23673 31.5501 3.65722 31.1516 3.94254C30.7532 4.22835 30.1836 4.371 29.4427 4.371H26.5564V1.00461ZM32.0393 8.34045C32.5626 7.95438 32.8242 7.4037 32.8242 6.68743C32.8242 6.10832 32.6654 5.63795 32.3474 5.27582C32.0294 4.9142 31.5685 4.67677 30.9644 4.56404C31.3993 4.41939 31.7433 4.18196 31.9969 3.85226C32.2505 3.52255 32.3773 3.11603 32.3773 2.63369C32.3773 1.94185 32.1217 1.40863 31.6105 1.03503C31.0992 0.660933 30.3848 0.473884 29.4671 0.473884H25.9405V8.91956H29.7083C30.7388 8.91956 31.5156 8.72702 32.0393 8.34045Z" fill="white"/>
<path d="M40.8069 5.31231C40.8069 6.34981 40.5693 7.12644 40.0945 7.6412C39.6192 8.15597 38.9352 8.41335 38.0415 8.41335C37.1398 8.41335 36.4513 8.15597 35.9765 7.6412C35.5012 7.12644 35.2636 6.34981 35.2636 5.31231V0.473955H34.648V5.33626C34.648 6.52689 34.9435 7.43171 35.5357 8.05122C36.1273 8.67073 36.9586 8.97998 38.0295 8.97998C39.0999 8.97998 39.9332 8.67073 40.5293 8.05122C41.1249 7.43171 41.423 6.52689 41.423 5.33626V0.473955H40.8069V5.31231Z" fill="white"/>
<path d="M47.2924 8.36489H44.6113V1.02905H47.2924C48.0732 1.02905 48.7617 1.18368 49.3573 1.49343C49.9535 1.80319 50.4123 2.23515 50.7343 2.79031C51.0563 3.34547 51.2176 3.98094 51.2176 4.69672C51.2176 5.413 51.0563 6.04797 50.7343 6.60313C50.4123 7.15829 49.9535 7.59075 49.3573 7.90001C48.7617 8.21026 48.0732 8.36489 47.2924 8.36489ZM51.2655 6.87448C51.644 6.23502 51.8332 5.50926 51.8332 4.69672C51.8332 3.88418 51.644 3.15842 51.2655 2.51896C50.8871 1.8795 50.3579 1.37871 49.6774 1.01658C48.9969 0.654948 48.218 0.473884 47.3408 0.473884H43.9952V8.91956H47.3408C48.218 8.91956 48.9969 8.73899 49.6774 8.37686C50.3579 8.01473 50.8871 7.51394 51.2655 6.87448Z" fill="white"/>
<path d="M49.6699 23.1567V11.9692H47.182V31.5665H49.6699V31.5655H66.7977V29.0795H49.6699V23.1567Z" fill="white"/>
<path d="M17.3764 23.3139V29.0795H2.71846V23.1567H17.3764V23.3139ZM2.71846 14.4562H17.376V19.5154H17.3758V20.6707H2.71846V14.4562ZM19.8655 19.5154H19.8641V19.4297L19.8645 19.4293V11.9742V11.9692H17.3764V11.9707H17.376H2.71846V11.9692H0.230322V14.4053C0.229972 14.4218 0.228973 14.4388 0.228973 14.4552V29.0811C0.228973 29.0975 0.229972 29.114 0.230322 29.1304V31.5655V31.5665H2.71691C2.71691 31.5665 2.71711 31.5665 2.71731 31.5665H2.71846V31.5655H17.3764V31.5665H19.8645V26.6335V24.3998C19.8645 23.1876 18.9961 22.1786 17.847 21.9586L17.8491 21.9563C18.9974 21.7357 19.8655 20.7272 19.8655 19.5154Z" fill="white"/>
<path d="M38.5692 14.4553V29.1004H23.9324V11.9693H21.4475H21.4428V14.4553H21.4442V29.1004H21.4428C21.4428 30.4737 22.5568 31.5864 23.931 31.5864H38.5702C39.9447 31.5864 41.0586 30.4737 41.0586 29.1004H41.0576V14.4553H41.0586V11.9693H38.5692V14.4553Z" fill="white"/>
<path d="M45.3887 23.1567V11.9692H42.9003V31.5665H45.3887V31.5655H45.3937V29.0795H45.3887V23.1567Z" fill="white"/>
<path d="M85.3204 20.2217V29.0795H70.6615V14.4562H85.3204V20.2217ZM85.3204 11.9692V11.9707H70.6615V11.9692H68.1731V20.8478V31.562V31.5665H70.6615V31.5655H85.3204V31.5665C86.6949 31.5665 87.8087 30.4538 87.8087 29.0811V14.4552C87.8087 13.0825 86.6949 11.9692 85.3204 11.9692Z" fill="white"/>
<path d="M113.554 29.0795V11.9692H111.066V27.8316L106.469 22.8599L103.336 19.4731L97.4954 13.1573L96.417 11.9907V11.9707V11.9692H93.9287V12.0814V12.9633V20.8478V31.562V31.5665H96.417V31.5655V29.0795V23.3139V20.2217V15.6538L102.143 21.8454L111.066 31.4946V31.562V31.5665H113.554V31.5655V31.5595H113.558V31.4473V30.5264L113.554 30.5219V29.0795Z" fill="white"/>
<path d="M92.1353 23.1567V11.9692H89.6475V31.5665H92.1353V31.5655H92.1403V29.0795H92.1353V23.1567Z" fill="white"/>
<path d="M132.332 11.9707H117.673V11.9692H115.185V13.8148V20.8478V29.7609V31.562V31.5665H116.943H117.673V31.5655H132.332V31.5665H134.82V29.0795V22.6879V20.5226H132.332H125.175H123.775H123.774V23.0086H123.775V23.0131H125.175V23.0086H128.512H129.912H132.332V23.3139V29.0795H117.673V23.3139V20.2217V14.4562H119.392H123.293H132.332H134.82V11.9742V11.9737V11.9692H132.332V11.9707Z" fill="white"/>
<path d="M193.279 14.4527H206.121L208.607 11.9692H207.914V11.9707H193.279V11.9692H190.794V29.0546V29.7657L193.279 27.2833V14.4527Z" fill="white"/>
<path d="M207.914 16.224V29.0546H195.071L192.585 31.5381H193.279V31.5367H207.914V31.5381H210.398V14.4528V13.7415L207.914 16.224Z" fill="white"/>
<path d="M229.569 14.4553V29.1004H214.933V11.9693H212.448H212.444V14.4553H212.445V29.1004H212.444C212.444 30.4737 213.558 31.5864 214.931 31.5864H229.571C230.945 31.5864 232.059 30.4737 232.059 29.1004H232.058V14.4553H232.059V11.9693H229.569V14.4553Z" fill="white"/>
<path d="M251.283 20.2217H236.624V14.4562H251.283V20.2217ZM253.768 11.9742V11.9707H236.624V11.9692H234.136V31.5665H236.624V22.7078H253.77V22.6879H253.771V11.9742H253.768Z" fill="white"/>
<path d="M186.328 19.5154V20.6707H171.67V14.4562H186.328V19.5154ZM188.817 19.5154H188.816V19.4297L188.816 19.4293V11.9742V11.9692H186.328V11.9707H186.328H171.67V11.9692H169.182V14.4053C169.182 14.4218 169.181 14.4388 169.181 14.4552V29.0811C169.181 29.0975 169.182 29.114 169.182 29.1304V31.5655V31.5665H171.669H171.67V31.5655V29.0795V26.6949V23.1567H186.328V23.3139V24.4008V26.6949V29.0795V31.5655V31.5665H188.816V26.6335V24.3998C188.816 23.1876 187.948 22.1786 186.799 21.9586L186.801 21.9563C187.949 21.7357 188.817 20.7272 188.817 19.5154Z" fill="white"/>
<path d="M164.954 11.9692V11.9707H150.295V11.9692H147.807V13.8148V20.8478V29.7609V31.562V31.5665H149.565H150.295V31.5655H164.954V31.5665H167.442V29.0795V22.6884V22.6879V20.5226H164.954H157.798H156.397H156.396V23.0086H156.397V23.0137H157.798V23.0086H161.134H162.534H164.954V23.3139V29.0795H150.295V23.3139V20.2217V14.4562H152.014V14.4567H155.915H164.954H167.442V14.4562V11.9742V11.9692H164.954Z" fill="white"/>
</g>
<defs>
<clipPath id="clip0_395_23">
<rect width="254" height="32" fill="white"/>
</clipPath>
</defs>
</svg>
